<?xml version="1.0" encoding="UTF-8" standalone="no"?>
<!-- Created with Inkscape (http://www.inkscape.org/) -->

<svg
   xmlns:dc="http://purl.org/dc/elements/1.1/"
   xmlns:cc="http://creativecommons.org/ns#"
   xmlns:rdf="http://www.w3.org/1999/02/22-rdf-syntax-ns#"
   xmlns:svg="http://www.w3.org/2000/svg"
   xmlns="http://www.w3.org/2000/svg"
   xmlns:sodipodi="http://sodipodi.sourceforge.net/DTD/sodipodi-0.dtd"
   xmlns:inkscape="http://www.inkscape.org/namespaces/inkscape"
   version="1.1"
   id="svg3087"
   xml:space="preserve"
   width="800"
   height="800"
   viewBox="0 0 800 800"
   sodipodi:docname="dolphin-2-publicdomainvectors.org.svg"
   inkscape:version="0.92.4 (5da689c313, 2019-01-14)"><metadata
     id="metadata3093"><rdf:RDF><cc:Work
         rdf:about=""><dc:format>image/svg+xml</dc:format><dc:type
           rdf:resource="http://purl.org/dc/dcmitype/StillImage" /><dc:title></dc:title></cc:Work></rdf:RDF></metadata><defs
     id="defs3091"><clipPath
       clipPathUnits="userSpaceOnUse"
       id="clipPath3103"><path
         d="M 0,600 H 600 V 0 H 0 Z"
         id="path3101"
         inkscape:connector-curvature="0" /></clipPath></defs><sodipodi:namedview
     pagecolor="#ffffff"
     bordercolor="#666666"
     borderopacity="1"
     objecttolerance="10"
     gridtolerance="10"
     guidetolerance="10"
     inkscape:pageopacity="0"
     inkscape:pageshadow="2"
     inkscape:window-width="1920"
     inkscape:window-height="1018"
     id="namedview3089"
     showgrid="false"
     inkscape:zoom="0.295"
     inkscape:cx="400"
     inkscape:cy="400"
     inkscape:window-x="-8"
     inkscape:window-y="-8"
     inkscape:window-maximized="1"
     inkscape:current-layer="g3095" /><g
     id="g3095"
     inkscape:groupmode="layer"
     inkscape:label="dolphin-2-publicdomainvectors.org"
     transform="matrix(1.3333333,0,0,-1.3333333,0,800)"><g
       id="g3097"><g
         id="g3099"
         clip-path="url(#clipPath3103)"><path
           d="m 473.125,189.193 c -2.806,5.785 -3.106,11.432 -0.672,12.613 2.436,1.181 6.686,-2.549 9.492,-8.333 2.806,-5.785 3.107,-11.431 0.672,-12.613 -2.435,-1.181 -6.685,2.55 -9.492,8.333 m -66.399,300.868 c 23.431,-39.14 14.874,-78.752 0.447,-82.094 -0.006,0.003 -0.009,0.008 -0.014,0.011 -13.286,9.838 -22.441,19.01 -25.281,25.21 14.678,4.427 23.573,24.791 24.848,56.873 m 45.709,-98.584 c 1.588,10.982 -1.739,30.548 -8.668,49.794 -5.42,15.055 -17.558,42.423 -37.946,56.569 l -3.796,2.635 -0.051,-4.62 c -0.342,-30.33 -7.289,-50.912 -18.855,-56.871 -94.692,31.186 -233.696,-23.696 -258.718,-55.64 21.753,17.676 164.951,67.885 217.735,28.549 48.094,-35.842 -49.319,-70.05 -105.072,-26.039 25.731,-31.244 45.486,-40.052 157.149,-55.955 68.006,-9.686 133.1,-152.222 96.392,-167.769 -36.706,-15.549 -94.348,81.808 -94.554,122.328 -5.105,-14.091 -10.109,-46.868 22.623,-94.397 18.305,-17.567 33.978,-32.367 49.058,-49.988 19.198,-22.431 34.34,-49.763 52.282,-39.211 6.943,4.085 -3.118,37.873 5.309,70.253 13.629,52.364 -7.077,150.703 -72.888,220.362 M 134.902,376.205 c -9.115,-35.245 -38.963,-36.45 -63.476,-49.36 -6.419,7.647 31.846,37.632 32.238,50.212 0.081,2.592 -2.575,4.096 1.877,8.718 14.346,14.898 -21.079,39.508 -16.224,55.841 21.851,-16.222 40.723,-16.372 46.351,-44.275 -7.964,16.623 -29.747,25.455 -28.753,18.668 0.993,-6.786 18.342,-20.618 14.866,-36.179 -3.476,-15.56 -31.739,-32.873 -31.409,-35.026 14.733,3.311 36.253,14.515 44.53,31.401 M 288.09,288.283 c 8.647,0 18.073,1.398 26.388,2.631 6.886,1.021 13.391,1.985 18.293,1.985 1.716,0 3.129,-0.121 4.33,-0.354 2.989,-2.529 6.654,-7.28 8.712,-16.052 5.08,-21.66 -62.891,-2.151 -70.534,12.248 -0.093,0.357 -0.16,0.676 -0.193,0.931 3.732,-0.934 8.003,-1.389 13.004,-1.389 m 103.846,-68.985 c -1.791,1.917 -3.731,3.993 -5.783,6.189 -2.049,2.201 -4.161,4.545 -6.368,6.953 -1.089,1.215 -2.246,2.411 -3.324,3.692 -1.09,1.267 -2.193,2.553 -3.304,3.847 -1.109,1.292 -2.227,2.593 -3.349,3.901 -1.089,1.333 -2.134,2.709 -3.203,4.059 -1.061,1.356 -2.123,2.711 -3.18,4.06 -0.524,0.679 -1.065,1.337 -1.569,2.024 -0.052,0.075 -0.105,0.149 -0.157,0.223 10.176,0.678 17.72,2.508 19.852,4.889 8.663,9.67 -32.605,37.497 -48.573,36.214 -0.07,0 -0.137,0.001 -0.207,0.001 -0.147,0 -0.3,-0.003 -0.45,-0.005 -0.073,0.091 -0.142,0.177 -0.22,0.274 -1.108,1.36 -2.684,3.393 -4.778,5.906 -1.073,1.234 -2.262,2.601 -3.556,4.087 -0.647,0.744 -1.321,1.517 -2.019,2.32 -0.728,0.776 -1.482,1.578 -2.261,2.408 -0.78,0.829 -1.586,1.683 -2.415,2.562 -0.837,0.873 -1.661,1.806 -2.588,2.684 -1.819,1.787 -3.734,3.664 -5.731,5.626 -2.068,1.881 -4.223,3.84 -6.454,5.871 -2.284,1.964 -4.68,3.957 -7.122,6.021 -2.531,1.962 -5.09,4.024 -7.778,6.036 -1.359,0.985 -2.732,1.979 -4.12,2.985 -0.693,0.502 -1.389,1.006 -2.09,1.514 -0.716,0.482 -1.436,0.966 -2.159,1.453 -1.447,0.971 -2.905,1.95 -4.374,2.935 -1.47,0.984 -3.008,1.89 -4.523,2.846 -0.761,0.471 -1.525,0.945 -2.29,1.421 l -1.15,0.712 -1.177,0.677 c -1.571,0.9 -3.15,1.805 -4.735,2.714 -1.57,0.935 -3.218,1.745 -4.836,2.617 -0.813,0.428 -1.627,0.859 -2.443,1.289 -0.812,0.434 -1.628,0.864 -2.465,1.256 -1.662,0.805 -3.327,1.613 -4.994,2.421 l -1.25,0.605 -1.27,0.564 -2.542,1.127 c -3.365,1.55 -6.827,2.88 -10.244,4.266 -1.718,0.67 -3.46,1.271 -5.181,1.904 -0.862,0.313 -1.723,0.625 -2.583,0.937 -0.869,0.284 -1.737,0.566 -2.603,0.848 -6.901,2.34 -13.851,4.148 -20.611,5.665 -1.696,0.354 -3.378,0.706 -5.044,1.053 -1.678,0.287 -3.34,0.572 -4.983,0.852 -0.823,0.132 -1.635,0.298 -2.455,0.397 -0.817,0.108 -1.631,0.212 -2.438,0.318 -0.808,0.105 -1.61,0.21 -2.408,0.313 -0.797,0.109 -1.589,0.208 -2.382,0.265 -1.581,0.141 -3.139,0.28 -4.675,0.415 -1.535,0.137 -3.057,0.16 -4.546,0.243 -0.746,0.035 -1.485,0.068 -2.218,0.103 -0.732,0.028 -1.461,0.009 -2.18,0.017 -1.44,0.002 -2.853,0.003 -4.236,0.004 -1.383,-0.063 -2.736,-0.126 -4.06,-0.188 -0.661,-0.033 -1.314,-0.064 -1.959,-0.097 -0.644,-0.064 -1.28,-0.126 -1.907,-0.187 -1.254,-0.123 -2.476,-0.242 -3.664,-0.36 -1.18,-0.182 -2.327,-0.357 -3.437,-0.528 -0.555,-0.085 -1.1,-0.17 -1.637,-0.252 -0.538,-0.076 -1.056,-0.217 -1.57,-0.32 -1.025,-0.22 -2.013,-0.434 -2.962,-0.638 -0.955,-0.179 -1.844,-0.47 -2.701,-0.705 -0.856,-0.245 -1.672,-0.477 -2.445,-0.698 -3.056,-1.026 -5.435,-1.886 -6.974,-2.654 -1.565,-0.716 -2.399,-1.096 -2.399,-1.096 0,0 0.848,0.348 2.44,0.999 1.571,0.709 3.978,1.474 7.043,2.372 0.778,0.189 1.597,0.389 2.456,0.598 0.861,0.2 1.751,0.454 2.707,0.594 0.949,0.166 1.938,0.34 2.962,0.519 0.514,0.081 1.03,0.201 1.567,0.254 0.535,0.061 1.079,0.123 1.633,0.186 1.105,0.127 2.246,0.258 3.42,0.391 1.181,0.069 2.395,0.142 3.64,0.214 0.623,0.037 1.253,0.074 1.891,0.112 0.64,0.006 1.288,0.012 1.943,0.02 1.309,0.008 2.649,0.019 4.017,0.028 1.366,-0.055 2.762,-0.11 4.185,-0.169 0.71,-0.035 1.429,-0.042 2.151,-0.101 0.722,-0.061 1.45,-0.123 2.185,-0.186 1.469,-0.14 2.966,-0.22 4.476,-0.415 1.509,-0.194 3.042,-0.391 4.596,-0.59 0.777,-0.087 1.556,-0.215 2.337,-0.354 0.783,-0.134 1.57,-0.267 2.362,-0.402 0.792,-0.135 1.589,-0.269 2.39,-0.406 0.802,-0.129 1.598,-0.326 2.404,-0.486 1.608,-0.341 3.233,-0.684 4.873,-1.031 1.628,-0.406 3.27,-0.818 4.927,-1.232 6.597,-1.755 13.356,-3.797 20.045,-6.362 0.84,-0.31 1.682,-0.622 2.524,-0.933 0.832,-0.338 1.665,-0.68 2.5,-1.02 1.665,-0.69 3.35,-1.344 5.01,-2.066 3.301,-1.494 6.64,-2.927 9.879,-4.578 l 2.446,-1.2 1.221,-0.598 1.201,-0.642 c 1.599,-0.855 3.198,-1.709 4.793,-2.561 0.803,-0.415 1.586,-0.866 2.364,-1.323 0.78,-0.452 1.559,-0.904 2.338,-1.354 1.548,-0.914 3.126,-1.765 4.625,-2.741 1.512,-0.948 3.018,-1.892 4.517,-2.831 l 1.123,-0.703 1.095,-0.739 c 0.729,-0.495 1.455,-0.985 2.179,-1.476 1.441,-0.991 2.904,-1.927 4.298,-2.942 1.393,-1.018 2.777,-2.026 4.148,-3.028 0.685,-0.501 1.367,-0.998 2.047,-1.495 0.661,-0.519 1.319,-1.038 1.975,-1.554 1.31,-1.028 2.607,-2.048 3.891,-3.058 2.535,-2.056 4.941,-4.157 7.321,-6.153 2.291,-2.1 4.536,-4.119 6.674,-6.107 2.081,-2.047 4.092,-4.025 6.022,-5.925 1.855,-1.969 3.633,-3.858 5.324,-5.653 0.862,-0.88 1.621,-1.814 2.396,-2.687 0.766,-0.881 1.511,-1.734 2.232,-2.563 0.72,-0.829 1.416,-1.63 2.088,-2.405 0.642,-0.8 1.262,-1.571 1.857,-2.31 1.19,-1.48 2.283,-2.84 3.269,-4.067 0.423,-0.55 0.818,-1.071 1.195,-1.574 -2.429,-0.321 -4.969,-0.697 -7.562,-1.081 -8.232,-1.222 -17.562,-2.606 -26.029,-2.606 -5.356,0 -9.81,0.537 -13.618,1.641 l -0.734,0.214 -0.514,-0.567 c -1.326,-1.458 -0.207,-4.65 0.577,-6.424 1.427,-3.224 15.541,-31.498 71.215,-31.499 h 10e-4 c 0.363,0 0.735,0.01 1.101,0.012 1.295,-0.056 2.572,-0.096 3.833,-0.121 1.147,-1.228 2.308,-2.471 3.478,-3.724 0.596,-0.639 1.196,-1.281 1.796,-1.922 0.613,-0.633 1.264,-1.237 1.896,-1.858 1.271,-1.23 2.548,-2.468 3.825,-3.706 1.28,-1.228 2.536,-2.478 3.827,-3.679 1.32,-1.168 2.635,-2.331 3.939,-3.488 1.302,-1.149 2.593,-2.292 3.868,-3.421 1.265,-1.141 2.583,-2.173 3.84,-3.239 2.536,-2.101 4.972,-4.154 7.303,-6.055 2.334,-1.898 4.54,-3.692 6.577,-5.347 4.076,-3.309 7.427,-6.105 9.798,-8.044 2.363,-1.947 3.715,-3.061 3.715,-3.061 0,0 -1.188,1.286 -3.262,3.536 -2.08,2.245 -5.031,5.485 -8.615,9.317"
           style="fill:#000000;fill-opacity:1;fill-rule:nonzero;stroke:none"
           id="path3105"
           inkscape:connector-curvature="0" /></g></g></g></svg>