<?xml version="1.0" encoding="UTF-8"?>
<svg version="1.1" xmlns="http://www.w3.org/2000/svg" width="300" height="300">
<path d="M0 0 C99 0 198 0 300 0 C300 99 300 198 300 300 C201 300 102 300 0 300 C0 201 0 102 0 0 Z " fill="#FEFEFE" transform="translate(0,0)"/>
<path d="M0 0 C11.17809805 8.51191466 17.61289099 18.25223328 20.19921875 32.1328125 C21.61430361 44.851527 17.77832415 56.90452905 10.19921875 67.1328125 C3.27659482 75.472784 -5.98269558 82.26974537 -17.04077148 83.35205078 C-31.51369211 84.05675243 -43.46231508 82.8854792 -54.80078125 73.1328125 C-55.70828125 72.4521875 -56.61578125 71.7715625 -57.55078125 71.0703125 C-65.29260478 64.40374224 -68.74254134 54.93123726 -70.734375 45.12890625 C-70.75628906 44.47019531 -70.77820313 43.81148437 -70.80078125 43.1328125 C-70.14078125 42.4728125 -69.48078125 41.8128125 -68.80078125 41.1328125 C-66.76953125 41.25390625 -66.76953125 41.25390625 -64.80078125 42.1328125 C-63.89453125 43.91796875 -63.89453125 43.91796875 -63.30078125 46.1953125 C-61.94517715 50.82941563 -60.1026685 54.89881908 -57.80078125 59.1328125 C-57.28515625 60.0815625 -56.76953125 61.0303125 -56.23828125 62.0078125 C-54.81985458 64.39336398 -54.81985458 64.39336398 -51.80078125 66.1328125 C-51.80078125 66.7928125 -51.80078125 67.4528125 -51.80078125 68.1328125 C-51.22070312 68.4215625 -50.640625 68.7103125 -50.04296875 69.0078125 C-48.64806996 69.70769203 -47.25672215 70.41475406 -45.87109375 71.1328125 C-45.22914063 71.4628125 -44.5871875 71.7928125 -43.92578125 72.1328125 C-43.28898437 72.4628125 -42.6521875 72.7928125 -41.99609375 73.1328125 C-32.57516475 77.42419653 -21.9525339 77.61303465 -12.17578125 74.171875 C-0.42077386 69.02905927 6.39889686 62.02843089 11.19921875 50.1328125 C14.1421714 38.77339016 12.76631134 27.38225192 7.19921875 17.1328125 C1.40344014 8.23167444 -6.67719987 4.53850519 -16.30078125 0.7578125 C-26.97038568 -1.14747401 -36.91370899 -0.00801288 -46.30859375 5.640625 C-55.41024634 12.27403282 -60.16739805 19.54212184 -62.9765625 30.41015625 C-63.80078125 33.1328125 -63.80078125 33.1328125 -65.80078125 35.1328125 C-68.42578125 34.7578125 -68.42578125 34.7578125 -70.80078125 34.1328125 C-70.1316517 25.09956352 -67.20059398 17.44868781 -61.80078125 10.1328125 C-60.99640625 8.9571875 -60.99640625 8.9571875 -60.17578125 7.7578125 C-59.72203125 7.2215625 -59.26828125 6.6853125 -58.80078125 6.1328125 C-58.14078125 6.1328125 -57.48078125 6.1328125 -56.80078125 6.1328125 C-56.80078125 5.4728125 -56.80078125 4.8128125 -56.80078125 4.1328125 C-41.05116382 -9.73778333 -17.57457712 -11.71638475 0 0 Z " fill="#AFC666" transform="translate(255.80078125,111.8671875)"/>
<path d="M0 0 C2.03125 0.12109375 2.03125 0.12109375 4 1 C4.90625 2.78515625 4.90625 2.78515625 5.5 5.0625 C6.8556041 9.69660313 8.69811275 13.76600658 11 18 C11.515625 18.94875 12.03125 19.8975 12.5625 20.875 C13.98092667 23.26055148 13.98092667 23.26055148 17 25 C17 25.66 17 26.32 17 27 C17.58007812 27.28875 18.16015625 27.5775 18.7578125 27.875 C20.15271129 28.57487953 21.5440591 29.28194156 22.9296875 30 C23.57164062 30.33 24.21359375 30.66 24.875 31 C25.51179688 31.33 26.14859375 31.66 26.8046875 32 C36.25943054 36.30678686 46.81638203 36.42992598 56.63671875 33.0546875 C60.13593511 31.49305375 63.30024283 29.48562184 66.52734375 27.4296875 C70.1641729 25.32687633 73.96518997 24.11103465 78 23 C76.6345505 29.99792868 71.7628107 33.41406839 66.1640625 37.26171875 C55.69448733 43.63347377 42.07588703 43.50408055 30.30859375 41.3125 C23.92475494 39.3557678 19.03164552 36.32791887 14 32 C13.0925 31.319375 12.185 30.63875 11.25 29.9375 C3.50817647 23.27092974 0.05823991 13.79842476 -1.93359375 3.99609375 C-1.95550781 3.33738281 -1.97742188 2.67867187 -2 2 C-1.34 1.34 -0.68 0.68 0 0 Z " fill="#8DC7B6" transform="translate(187,153)"/>
<path d="M0 0 C8.12732012 1.01410411 14.80555378 8.03567853 19.76171875 14.234375 C26.47835331 23.81140598 29.29645519 35.40473788 28 47 C26.23825603 55.40063225 23.16396961 63.09503492 18 70 C17.01 70.495 17.01 70.495 16 71 C15.67 70.01 15.34 69.02 15 68 C13.515 68.99 13.515 68.99 12 70 C10.515 69.505 10.515 69.505 9 69 C9.38671875 68.5153125 9.7734375 68.030625 10.171875 67.53125 C18.55987597 56.73481311 21.52167582 46.74967163 20 33 C17.93954231 24.23824068 14.05627987 16.71386565 7 11 C3.11424531 8.70192177 -0.84713409 6.76496801 -5 5 C-5 4.67 -5 4.34 -5 4 C-3.35 4 -1.7 4 0 4 C0 2.68 0 1.36 0 0 Z " fill="#A8C97A" transform="translate(248,109)"/>
<path d="M0 0 C2.875 0.3125 2.875 0.3125 6 1 C8.41130692 4.61696038 8.35627596 7.36533563 8.40625 11.5546875 C8.41765015 12.29324982 8.42905029 13.03181213 8.4407959 13.79275513 C8.45967238 15.35445444 8.4727546 16.916233 8.48046875 18.47802734 C8.49988162 20.86047133 8.56192342 23.23946011 8.625 25.62109375 C8.63806175 27.14060457 8.64856205 28.66013999 8.65625 30.1796875 C8.6809436 30.88817841 8.70563721 31.59666931 8.7310791 32.32662964 C8.70594559 35.1348774 8.52839889 37.34626858 6.72753906 39.57427979 C4.19677299 41.7813546 2.23768515 42.95149283 -1.0625 43.625 C-5.1093876 42.76396009 -6.43739515 41.22131753 -9 38 C-9.50759417 35.08581227 -9.70496569 32.8894271 -9.625 30 C-9.64433594 29.30132812 -9.66367188 28.60265625 -9.68359375 27.8828125 C-9.64683883 23.98679149 -9.08950169 22.11877075 -6.73046875 18.98828125 C-4 17 -4 17 -1.76171875 16.73046875 C0.15885417 17.15364583 2.07942708 17.57682292 4 18 C3.9127395 15.74928094 3.80455885 13.49936612 3.6875 11.25 C3.62949219 9.99703125 3.57148437 8.7440625 3.51171875 7.453125 C2.99544099 3.96923537 2.3746744 2.52110204 0 0 Z " fill="#275C89" transform="translate(120,120)"/>
<path d="M0 0 C4.49654359 0.80295421 5.71856185 2.0334797 8.5 5.625 C9.15516455 8.48468525 9.15512473 11.26289114 9.125 14.1875 C9.00711475 19.9077264 9.00711475 19.9077264 11.0234375 25.15234375 C11.75433594 25.88130859 11.75433594 25.88130859 12.5 26.625 C9.45613276 26.70726668 7.42824652 26.60108217 4.5 25.625 C3.84 25.955 3.18 26.285 2.5 26.625 C-1.4211776 27.14782368 -2.96724489 27.0302381 -6.16015625 24.6015625 C-9.05544864 20.91840257 -9.24953028 18.12469421 -9.125 13.625 C-9.14433594 12.92632812 -9.16367188 12.22765625 -9.18359375 11.5078125 C-9.14660824 7.58734795 -8.61482599 5.77152879 -6.1796875 2.6640625 C-3.5 0.625 -3.5 0.625 0 0 Z " fill="#135285" transform="translate(142.5,136.375)"/>
<path d="M0 0 C2.05078125 0.29296875 4.1015625 0.5859375 6.15234375 0.87890625 C6.76207031 0.91886719 7.37179688 0.95882812 8 1 C8.33 0.67 8.66 0.34 9 0 C13.23314767 -0.23961213 16.36736489 -0.32488647 20 2 C20.66 1.34 21.32 0.68 22 0 C26.13076341 -0.54557253 28.23173216 -0.52472472 31.7109375 1.8515625 C35.04045323 6.43106707 34.55283026 10.30708842 34.3125 15.8125 C34.28994141 16.79154297 34.26738281 17.77058594 34.24414062 18.77929688 C34.18539727 21.18777455 34.10332129 23.59309078 34 26 C32.68 25.67 31.36 25.34 30 25 C29.93941406 23.71222656 29.87882812 22.42445313 29.81640625 21.09765625 C29.73201753 19.41925841 29.6473687 17.74087364 29.5625 16.0625 C29.52318359 15.21236328 29.48386719 14.36222656 29.44335938 13.48632812 C29.40146484 12.67744141 29.35957031 11.86855469 29.31640625 11.03515625 C29.27974854 10.2862915 29.24309082 9.53742676 29.20532227 8.76586914 C29.18228937 6.97538674 29.18228937 6.97538674 28 6 C25.5 5.83333333 25.5 5.83333333 23 6 C21.48578999 7.51421001 21.78690144 8.92472768 21.68359375 11.03515625 C21.64169922 11.84404297 21.59980469 12.65292969 21.55664062 13.48632812 C21.51732422 14.33646484 21.47800781 15.18660156 21.4375 16.0625 C21.39431641 16.91650391 21.35113281 17.77050781 21.30664062 18.65039062 C21.20023298 20.76672037 21.09958269 22.88333813 21 25 C19.68 25.33 18.36 25.66 17 26 C16.97494385 25.42967041 16.9498877 24.85934082 16.92407227 24.27172852 C16.80843451 21.70173843 16.68556376 19.13214473 16.5625 16.5625 C16.52318359 15.66466797 16.48386719 14.76683594 16.44335938 13.84179688 C16.40146484 12.98779297 16.35957031 12.13378906 16.31640625 11.25390625 C16.27974854 10.46314697 16.24309082 9.6723877 16.20532227 8.85766602 C16.19436743 6.98598559 16.19436743 6.98598559 15 6 C12.5 5.83333333 12.5 5.83333333 10 6 C8.48578999 7.51421001 8.78690144 8.92472768 8.68359375 11.03515625 C8.64169922 11.84404297 8.59980469 12.65292969 8.55664062 13.48632812 C8.51732422 14.33646484 8.47800781 15.18660156 8.4375 16.0625 C8.39431641 16.91650391 8.35113281 17.77050781 8.30664062 18.65039062 C8.20023298 20.76672037 8.09958269 22.88333813 8 25 C6.68 25.33 5.36 25.66 4 26 C3.98541748 25.39003174 3.97083496 24.78006348 3.95581055 24.15161133 C3.88105225 21.37128936 3.78448518 18.59213176 3.6875 15.8125 C3.66494141 14.85279297 3.64238281 13.89308594 3.61914062 12.90429688 C3.35930525 5.98046314 3.35930525 5.98046314 0 0 Z " fill="#1E5A8B" transform="translate(25,137)"/>
<path d="M0 0 C1.98 0.495 1.98 0.495 4 1 C4.33 7.27 4.66 13.54 5 20 C6.65 20.33 8.3 20.66 10 21 C12.0140956 17.9788566 12.26836596 17.19339983 12.4140625 13.76953125 C12.45273438 12.96708984 12.49140625 12.16464844 12.53125 11.33789062 C12.57765625 10.08782227 12.57765625 10.08782227 12.625 8.8125 C12.66367188 7.96751953 12.70234375 7.12253906 12.7421875 6.25195312 C12.83636279 4.16832476 12.91926675 2.08419247 13 0 C14.32 0.33 15.64 0.66 17 1 C17.09894543 6.33848672 17.17150414 11.67643869 17.21972656 17.015625 C17.23983061 18.8314748 17.26711835 20.64725995 17.30175781 22.46289062 C17.35033039 25.07438105 17.37298027 27.68501498 17.390625 30.296875 C17.41127014 31.10743347 17.43191528 31.91799194 17.45318604 32.75311279 C17.45464598 36.42797607 17.32655464 38.55629875 15.11621094 41.55957031 C13 43 13 43 10.75 42.75 C10.1725 42.5025 9.595 42.255 9 42 C9.48082031 41.47921875 9.96164063 40.9584375 10.45703125 40.421875 C12.45173865 37.29094187 12.50318411 34.93631779 12.6875 31.25 C12.75324219 30.07953125 12.81898437 28.9090625 12.88671875 27.703125 C12.92410156 26.81109375 12.96148437 25.9190625 13 25 C11.948125 25.226875 10.89625 25.45375 9.8125 25.6875 C5.55607398 26.03638738 4.23631945 25.68152183 1 23 C-0.73632811 20.14565335 -1.24924939 18.02899533 -1.23046875 14.70703125 C-1.22853516 13.91232422 -1.22660156 13.11761719 -1.22460938 12.29882812 C-1.21236328 11.47833984 -1.20011719 10.65785156 -1.1875 9.8125 C-1.18685547 8.98041016 -1.18621094 8.14832031 -1.18554688 7.29101562 C-1.14043257 1.14043257 -1.14043257 1.14043257 0 0 Z " fill="#124F80" transform="translate(88,137)"/>
<path d="M0 0 C3.5 0.625 3.5 0.625 6.4375 2.4375 C9.40277851 7.02020316 9.12586753 11.29618504 8.5 16.625 C7.5 17.625 7.5 17.625 4.77734375 17.72265625 C3.67519531 17.71105469 2.57304688 17.69945312 1.4375 17.6875 C-0.21958984 17.67396484 -0.21958984 17.67396484 -1.91015625 17.66015625 C-2.76480469 17.64855469 -3.61945313 17.63695312 -4.5 17.625 C-3.44124926 21.02812738 -2.49097846 23.63853231 -0.5 26.625 C-2.8125 26.875 -2.8125 26.875 -5.5 26.625 C-8.28103024 24.0961873 -8.51836075 22.47092269 -8.96875 18.69140625 C-8.99520119 17.19030106 -9.00512837 15.68882946 -9 14.1875 C-9.02835937 13.43662109 -9.05671875 12.68574219 -9.0859375 11.91210938 C-9.10073351 7.70634462 -8.84340054 6.06991252 -6.1875 2.62890625 C-3.5 0.625 -3.5 0.625 0 0 Z " fill="#135181" transform="translate(73.5,136.375)"/>
<path d="M0 0 C2.03125 0.12109375 2.03125 0.12109375 4 1 C4.90625 2.78515625 4.90625 2.78515625 5.5 5.0625 C6.8556041 9.69660313 8.69811275 13.76600658 11 18 C11.515625 18.94875 12.03125 19.8975 12.5625 20.875 C13.98092667 23.26055148 13.98092667 23.26055148 17 25 C17 25.66 17 26.32 17 27 C17.556875 27.268125 18.11375 27.53625 18.6875 27.8125 C21.19712523 29.10122647 23.59334236 30.52926478 26 32 C25.1875 33.9375 25.1875 33.9375 24 36 C22.515 36.495 22.515 36.495 21 37 C9.58420028 30.40420461 2.82031371 21.71882751 -0.83203125 9.1328125 C-1.92449518 4.26958596 -1.92449518 4.26958596 -2 2 C-1.34 1.34 -0.68 0.68 0 0 Z " fill="#7FC5CC" transform="translate(187,153)"/>
<path d="M0 0 C1.58206057 0.00667536 3.16410534 0.0186375 4.74609375 0.03515625 C5.55240234 0.03966797 6.35871094 0.04417969 7.18945312 0.04882812 C9.18753131 0.06065107 11.18557158 0.07858711 13.18359375 0.09765625 C13.84155273 1.84082031 13.84155273 1.84082031 14.18359375 4.09765625 C13.19555664 6.11230469 13.19555664 6.11230469 11.65625 8.20703125 C11.11162109 8.96113281 10.56699219 9.71523437 10.00585938 10.4921875 C9.42513672 11.26949219 8.84441406 12.04679688 8.24609375 12.84765625 C7.66923828 13.64042969 7.09238281 14.43320313 6.49804688 15.25 C5.07119226 17.20750302 3.62883565 19.15368917 2.18359375 21.09765625 C6.14359375 21.42765625 10.10359375 21.75765625 14.18359375 22.09765625 C14.18359375 23.41765625 14.18359375 24.73765625 14.18359375 26.09765625 C7.91359375 26.09765625 1.64359375 26.09765625 -4.81640625 26.09765625 C-3.69140625 19.34765625 -3.69140625 19.34765625 -1.53125 16.44921875 C-1.08330078 15.83691406 -0.63535156 15.22460938 -0.17382812 14.59375 C0.29474609 13.97628906 0.76332031 13.35882813 1.24609375 12.72265625 C1.71853516 12.08199219 2.19097656 11.44132813 2.67773438 10.78125 C3.8365457 9.2127579 5.00874444 7.65417167 6.18359375 6.09765625 C2.88359375 5.76765625 -0.41640625 5.43765625 -3.81640625 5.09765625 C-4.14640625 3.77765625 -4.47640625 2.45765625 -4.81640625 1.09765625 C-3.81640625 0.09765625 -3.81640625 0.09765625 0 0 Z " fill="#72AA4E" transform="translate(233.81640625,136.90234375)"/>
<path d="M0 0 C2.05078125 0.29296875 4.1015625 0.5859375 6.15234375 0.87890625 C6.76207031 0.91886719 7.37179688 0.95882812 8 1 C8.33 0.67 8.66 0.34 9 0 C12.94942306 -0.55108229 14.71702044 -0.16701002 18.18359375 1.87890625 C20.21311063 3.65445747 20.92070065 4.62402071 21.48217773 7.28613281 C21.59082785 9.98474606 21.52364215 12.61597889 21.375 15.3125 C21.34792969 16.24384766 21.32085937 17.17519531 21.29296875 18.13476562 C21.2224825 20.42556872 21.12404246 22.71157563 21 25 C19.68 25.33 18.36 25.66 17 26 C16.98018066 25.43490723 16.96036133 24.86981445 16.93994141 24.28759766 C16.84481764 21.73292003 16.73508942 19.17907459 16.625 16.625 C16.5940625 15.73554688 16.563125 14.84609375 16.53125 13.9296875 C16.49257812 13.07890625 16.45390625 12.228125 16.4140625 11.3515625 C16.36693115 10.17327881 16.36693115 10.17327881 16.31884766 8.97119141 C16.1600535 6.76997061 16.1600535 6.76997061 14 5 C12.68 5 11.36 5 10 5 C8.88176185 7.23647631 8.80603939 8.64891529 8.68359375 11.1328125 C8.64169922 11.93847656 8.59980469 12.74414062 8.55664062 13.57421875 C8.49766602 14.83685547 8.49766602 14.83685547 8.4375 16.125 C8.39431641 16.97449219 8.35113281 17.82398438 8.30664062 18.69921875 C8.20045764 20.79928223 8.09971503 22.89961948 8 25 C6.68 25.33 5.36 25.66 4 26 C3.98541748 25.39003174 3.97083496 24.78006348 3.95581055 24.15161133 C3.88105225 21.37128936 3.78448518 18.59213176 3.6875 15.8125 C3.66494141 14.85279297 3.64238281 13.89308594 3.61914062 12.90429688 C3.35930525 5.98046314 3.35930525 5.98046314 0 0 Z " fill="#0D4E82" transform="translate(155,137)"/>
<path d="M0 0 C0.66 0 1.32 0 2 0 C4.05127844 3.07691766 4.27260872 3.93644999 4.4140625 7.44921875 C4.45273437 8.29677734 4.49140625 9.14433594 4.53125 10.01757812 C4.5621875 10.89865234 4.593125 11.77972656 4.625 12.6875 C4.66367187 13.58017578 4.70234375 14.47285156 4.7421875 15.39257812 C4.83640218 17.5948462 4.92201588 19.79710722 5 22 C5.66 22 6.32 22 7 22 C7.66 18.04 8.32 14.08 9 10 C9.33 10 9.66 10 10 10 C10.83819781 22.92221624 7.82930167 34.53110519 0 45 C-0.99 45.495 -0.99 45.495 -2 46 C-2.495 44.515 -2.495 44.515 -3 43 C-3.99 43.66 -4.98 44.32 -6 45 C-6.99 44.67 -7.98 44.34 -9 44 C-8.41992188 43.27296875 -8.41992188 43.27296875 -7.828125 42.53125 C0.95050233 31.23202671 2.65128189 22.32820148 2 8 C1.54054193 5.17932699 0.88881574 2.72199821 0 0 Z " fill="#9AC899" transform="translate(266,134)"/>
<path d="M0 0 C0.33800393 4.48623402 0.33800393 4.48623402 -1.171875 6.78125 C-1.69265625 7.3484375 -2.2134375 7.915625 -2.75 8.5 C-6.39781282 12.99093936 -7.67698284 17.70859301 -9.140625 23.2421875 C-10 26 -10 26 -12 28 C-14.625 27.625 -14.625 27.625 -17 27 C-16.3509048 18.23721486 -13.61117145 9.87821017 -8 3 C-7.01 3 -6.02 3 -5 3 C-5 2.34 -5 1.68 -5 1 C-3 0 -3 0 0 0 Z " fill="#B3CB3F" transform="translate(202,119)"/>
<path d="M0 0 C4.62 0 9.24 0 14 0 C14.33 1.32 14.66 2.64 15 4 C11.37 4 7.74 4 4 4 C4 6.64 4 9.28 4 12 C6.97 12 9.94 12 13 12 C12.67 13.32 12.34 14.64 12 16 C9.36 16 6.72 16 4 16 C4 19.3 4 22.6 4 26 C2.68 26 1.36 26 0 26 C0 17.42 0 8.84 0 0 Z " fill="#70A648" transform="translate(212,137)"/>
<path d="M0 0 C2.875 0.3125 2.875 0.3125 6 1 C8.43893323 4.65839985 8.30612406 7.42797551 8.30078125 11.66015625 C8.30506638 12.40583359 8.3093515 13.15151093 8.31376648 13.91978455 C8.31950385 15.49412013 8.3200144 17.06848221 8.31567383 18.64282227 C8.31250687 21.05725945 8.33600258 23.47047933 8.36132812 25.88476562 C8.36360042 27.41406095 8.36430494 28.94335958 8.36328125 30.47265625 C8.372491 31.19663101 8.38170074 31.92060577 8.39118958 32.66651917 C8.37231445 34.69946289 8.37231445 34.69946289 8 38 C7.01 38.66 6.02 39.32 5 40 C3.58858518 35.76575555 3.66854765 31.56982591 3.4765625 27.12890625 C2.96909605 23.79709782 2.14030243 22.51228013 0 20 C0 19.34 0 18.68 0 18 C1.32 18 2.64 18 4 18 C3.9127395 15.74928094 3.80455885 13.49936612 3.6875 11.25 C3.62949219 9.99703125 3.57148437 8.7440625 3.51171875 7.453125 C2.99544099 3.96923537 2.3746744 2.52110204 0 0 Z " fill="#0D4D80" transform="translate(120,120)"/>
<path d="M0 0 C0.33 0.66 0.66 1.32 1 2 C2.19882812 2.40412109 2.19882812 2.40412109 3.421875 2.81640625 C6 4 6 4 7.328125 6.27734375 C7.63234375 7.15519531 7.9365625 8.03304687 8.25 8.9375 C8.56453125 9.81277344 8.8790625 10.68804687 9.203125 11.58984375 C9.46609375 12.38519531 9.7290625 13.18054688 10 14 C10.33 14.99 10.66 15.98 11 17 C11.01423205 19.71262922 10.95355277 22.35859009 10.8125 25.0625 C10.79380859 25.79533203 10.77511719 26.52816406 10.75585938 27.28320312 C10.64453125 29.41015625 10.64453125 29.41015625 10 33 C7.9597168 34.22436523 7.9597168 34.22436523 6 35 C5.97494385 34.37955811 5.9498877 33.75911621 5.92407227 33.11987305 C5.80803279 30.30887603 5.68534241 27.49820759 5.5625 24.6875 C5.52318359 23.71103516 5.48386719 22.73457031 5.44335938 21.72851562 C5.40146484 20.79072266 5.35957031 19.85292969 5.31640625 18.88671875 C5.27974854 18.02264404 5.24309082 17.15856934 5.20532227 16.26831055 C5.07252646 13.8352174 5.07252646 13.8352174 4 11 C3.34 10.67 2.68 10.34 2 10 C0.55487596 6.3871899 0 3.93312158 0 0 Z " fill="#96C78C" transform="translate(264,123)"/>
<path d="M0 0 C0.886875 0.185625 1.77375 0.37125 2.6875 0.5625 C5.88965669 0.98542636 7.90675408 0.75241117 11 0 C11.99 0 12.98 0 14 0 C14 1.98 14 3.96 14 6 C14.99 6 15.98 6 17 6 C17 4.35 17 2.7 17 1 C18.65614657 0.61781233 20.32457024 0.28604898 22 0 C23 1 23 1 23.1875 3.4375 C23 6 23 6 21 8 C18.3984375 8.1953125 18.3984375 8.1953125 15.375 8.125 C13.87066406 8.09792969 13.87066406 8.09792969 12.3359375 8.0703125 C11.56507813 8.04710937 10.79421875 8.02390625 10 8 C10 7.34 10 6.68 10 6 C9.38125 6.165 8.7625 6.33 8.125 6.5 C4.83326559 7.27452574 2.2777025 6.69004263 -1 6 C-0.67 4.02 -0.34 2.04 0 0 Z " fill="#A8BFCF" transform="translate(153,186)"/>
<path d="M0 0 C2.875 -0.125 2.875 -0.125 6 0 C8 2 8 2 8.265625 4.75 C8.26046875 5.8225 8.2553125 6.895 8.25 8 C8.25515625 9.0725 8.2603125 10.145 8.265625 11.25 C8 14 8 14 6 16 C2.875 16.125 2.875 16.125 0 16 C-1.36538938 13.26922124 -1.13231826 11.04439633 -1.125 8 C-1.12757812 6.9275 -1.13015625 5.855 -1.1328125 4.75 C-1 2 -1 2 0 0 Z " fill="#ECF5F9" transform="translate(116,142)"/>
<path d="M0 0 C2.5 0.25 2.5 0.25 4.5 2.25 C4.765625 5 4.765625 5 4.75 8.25 C4.75515625 9.3225 4.7603125 10.395 4.765625 11.5 C4.5 14.25 4.5 14.25 2.5 16.25 C0 16.5 0 16.5 -2.5 16.25 C-4.5 14.25 -4.5 14.25 -4.765625 11.5 C-4.76046875 10.4275 -4.7553125 9.355 -4.75 8.25 C-4.75515625 7.1775 -4.7603125 6.105 -4.765625 5 C-4.41531752 1.3732873 -3.66834697 0.3668347 0 0 Z " fill="#EDF8FC" transform="translate(142.5,141.75)"/>
<path d="M0 0 C1.58206057 0.00667536 3.16410534 0.0186375 4.74609375 0.03515625 C5.55240234 0.03966797 6.35871094 0.04417969 7.18945312 0.04882812 C9.18753131 0.06065107 11.18557158 0.07858711 13.18359375 0.09765625 C13.76879883 1.93652344 13.76879883 1.93652344 14.18359375 4.09765625 C12.8203125 6.67578125 12.8203125 6.67578125 10.87109375 9.34765625 C10.23558594 10.2396875 9.60007813 11.13171875 8.9453125 12.05078125 C8.36394531 12.72625 7.78257812 13.40171875 7.18359375 14.09765625 C6.52359375 14.09765625 5.86359375 14.09765625 5.18359375 14.09765625 C5.18359375 13.10765625 5.18359375 12.11765625 5.18359375 11.09765625 C4.19359375 11.59265625 4.19359375 11.59265625 3.18359375 12.09765625 C5.05859375 7.22265625 5.05859375 7.22265625 6.18359375 6.09765625 C2.88359375 5.76765625 -0.41640625 5.43765625 -3.81640625 5.09765625 C-4.14640625 3.77765625 -4.47640625 2.45765625 -4.81640625 1.09765625 C-3.81640625 0.09765625 -3.81640625 0.09765625 0 0 Z " fill="#81B062" transform="translate(233.81640625,136.90234375)"/>
<path d="M0 0 C0.99 0 1.98 0 3 0 C2.125 3.875 2.125 3.875 1 5 C-0.66617115 5.04063832 -2.33388095 5.042721 -4 5 C-4.07089844 5.59296875 -4.14179688 6.1859375 -4.21484375 6.796875 C-5.290287 9.81453665 -6.87157792 10.58238632 -9.5625 12.25 C-10.38878906 12.77078125 -11.21507812 13.2915625 -12.06640625 13.828125 C-12.70449219 14.21484375 -13.34257812 14.6015625 -14 15 C-14 13.68 -14 12.36 -14 11 C-15.65 11.33 -17.3 11.66 -19 12 C-19 12.66 -19 13.32 -19 14 C-19.66 13.67 -20.32 13.34 -21 13 C-20.34 12.01 -19.68 11.02 -19 10 C-18.34 10 -17.68 10 -17 10 C-17 9.34 -17 8.68 -17 8 C-12.01844588 3.74139251 -7.50903052 1.40681441 -1 1 C-0.67 0.67 -0.34 0.34 0 0 Z " fill="#ADC64F" transform="translate(216,108)"/>
<path d="M0 0 C0.33 0.66 0.66 1.32 1 2 C1.66 2 2.32 2 3 2 C3 2.99 3 3.98 3 5 C3.66 5 4.32 5 5 5 C5.33 3.68 5.66 2.36 6 1 C8.31 1 10.62 1 13 1 C12.67 2.65 12.34 4.3 12 6 C11.34 6 10.68 6 10 6 C10 6.66 10 7.32 10 8 C10.99 8 11.98 8 13 8 C13 8.66 13 9.32 13 10 C10.69 10 8.38 10 6 10 C5.67 8.68 5.34 7.36 5 6 C4.34 6 3.68 6 3 6 C3 6.99 3 7.98 3 9 C1.02 9 -0.96 9 -3 9 C-3.33 6.36 -3.66 3.72 -4 1 C-2.68 0.67 -1.36 0.34 0 0 Z " fill="#AAC1CC" transform="translate(128,184)"/>
<path d="M0 0 C2.01953125 0.12109375 2.01953125 0.12109375 4 1 C6.8734794 6.07019338 7.48069808 12.28767891 8 18 C6.35 18.33 4.7 18.66 3 19 C-1.74908857 8.02187433 -1.74908857 8.02187433 -2 2 C-1.34 1.34 -0.68 0.68 0 0 Z " fill="#6FC0D4" transform="translate(187,153)"/>
<path d="M0 0 C1.35158203 0.00483398 1.35158203 0.00483398 2.73046875 0.00976562 C4.04724609 -0.0144043 4.04724609 -0.0144043 5.390625 -0.0390625 C11.31560153 -0.04346441 15.68304805 0.92704716 21.10546875 3.32226562 C21.10546875 4.97226563 21.10546875 6.62226562 21.10546875 8.32226562 C15.49805139 8.42330017 10.15740114 8.08308599 4.60546875 7.32226562 C3.51492187 7.17917969 3.51492187 7.17917969 2.40234375 7.03320312 C0.63611008 6.80080396 -1.12930531 6.56219925 -2.89453125 6.32226562 C-2.89453125 5.99226563 -2.89453125 5.66226563 -2.89453125 5.32226562 C2.05546875 5.32226562 7.00546875 5.32226562 12.10546875 5.32226562 C11.77546875 4.66226563 11.44546875 4.00226563 11.10546875 3.32226562 C6.90230129 2.06369006 2.6393227 2.20569615 -1.70703125 2.25976562 C-2.39990234 2.26427734 -3.09277344 2.26878906 -3.80664062 2.2734375 C-5.50264193 2.28513406 -7.19859828 2.30306638 -8.89453125 2.32226562 C-6.05502427 -0.51724135 -3.88370797 0.03202458 0 0 Z " fill="#ABC671" transform="translate(226.89453125,104.677734375)"/>
<path d="M0 0 C3.69733892 0.4996404 5.70174442 1.00034225 8 4 C8.34057617 6.26831055 8.34057617 6.26831055 8.29296875 8.88671875 C8.28330078 9.82451172 8.27363281 10.76230469 8.26367188 11.72851562 C8.23853516 12.70498047 8.21339844 13.68144531 8.1875 14.6875 C8.17396484 15.67556641 8.16042969 16.66363281 8.14648438 17.68164062 C8.11112203 20.12164231 8.06177033 22.56054719 8 25 C6.68 24.67 5.36 24.34 4 24 C3.93941406 22.74703125 3.87882812 21.4940625 3.81640625 20.203125 C3.73197744 18.55207276 3.64733061 16.90103165 3.5625 15.25 C3.52318359 14.425 3.48386719 13.6 3.44335938 12.75 C3.38051758 11.55117187 3.38051758 11.55117187 3.31640625 10.328125 C3.27974854 9.5949707 3.24309082 8.86181641 3.20532227 8.10644531 C2.99885215 5.98822395 2.56867914 4.0480544 2 2 C1.01 2.33 0.02 2.66 -1 3 C-0.67 2.01 -0.34 1.02 0 0 Z " fill="#134E7C" transform="translate(51,138)"/>
<path d="M0 0 C2.0625 0.4375 2.0625 0.4375 4 1 C4.05390357 3.93774463 4.0936255 6.87450232 4.125 9.8125 C4.14175781 10.64587891 4.15851563 11.47925781 4.17578125 12.33789062 C4.18222656 13.14033203 4.18867187 13.94277344 4.1953125 14.76953125 C4.20578613 15.50792236 4.21625977 16.24631348 4.22705078 17.00708008 C4 19 4 19 2 22 C1.34 22 0.68 22 0 22 C-0.91300909 19.26097274 -1.12846608 17.6255173 -1.1328125 14.8046875 C-1.13410156 14.00675781 -1.13539062 13.20882812 -1.13671875 12.38671875 C-1.13285156 11.55785156 -1.12898438 10.72898438 -1.125 9.875 C-1.12886719 9.03839844 -1.13273437 8.20179688 -1.13671875 7.33984375 C-1.12664874 1.12664874 -1.12664874 1.12664874 0 0 Z " fill="#2F6596" transform="translate(88,137)"/>
<path d="M0 0 C2.5 0.25 2.5 0.25 4.5 2.25 C4.76991906 4.93839385 4.58737357 7.54141936 4.5 10.25 C-1.65234375 10.34765625 -1.65234375 10.34765625 -3.5 10.25 C-4.5 9.25 -4.5 9.25 -4.6875 5.8125 C-4.47268534 1.73102138 -4.19787247 0.41978725 0 0 Z " fill="#ECF7FB" transform="translate(73.5,141.75)"/>
<path d="M0 0 C3 2.25 3 2.25 5 5 C4.8125 7.3125 4.8125 7.3125 4 9 C4 8.34 4 7.68 4 7 C2.39679026 6.80448662 0.79237014 6.61888017 -0.8125 6.4375 C-1.70582031 6.33308594 -2.59914062 6.22867188 -3.51953125 6.12109375 C-6.13375572 5.84341291 -6.13375572 5.84341291 -9 7 C-9.99 7 -10.98 7 -12 7 C-9.78039431 0.51192183 -6.79271975 -0.819811 0 0 Z " fill="#286193" transform="translate(146,137)"/>
<path d="M0 0 C3.3 0.33 6.6 0.66 10 1 C10.625 3.875 10.625 3.875 11 7 C9 9 9 9 7.0546875 9.1953125 C5.03645833 9.13020833 3.01822917 9.06510417 1 9 C0.67 6.03 0.34 3.06 0 0 Z " fill="#92AEBB" transform="translate(110,185)"/>
<path d="M0 0 C2.31 0.33 4.62 0.66 7 1 C4.86793788 5.67239145 2.97497544 9.59287819 -1 13 C-1.33 12.01 -1.66 11.02 -2 10 C-2.99 10.66 -3.98 11.32 -5 12 C-5.99 11.67 -6.98 11.34 -8 11 C-7.59007812 10.45730469 -7.18015625 9.91460937 -6.7578125 9.35546875 C-6.21898437 8.64003906 -5.68015625 7.92460937 -5.125 7.1875 C-4.59132813 6.47980469 -4.05765625 5.77210938 -3.5078125 5.04296875 C-2.29185219 3.39543703 -1.13583859 1.70375789 0 0 Z " fill="#97C6A8" transform="translate(265,167)"/>
<path d="M0 0 C0.33 0 0.66 0 1 0 C1.09894543 5.33848672 1.17150414 10.67643869 1.21972656 16.015625 C1.23983061 17.8314748 1.26711835 19.64725995 1.30175781 21.46289062 C1.35033039 24.07438105 1.37298027 26.68501498 1.390625 29.296875 C1.41127014 30.10743347 1.43191528 30.91799194 1.45318604 31.75311279 C1.45464598 35.42797607 1.32655464 37.55629875 -0.88378906 40.55957031 C-3 42 -3 42 -5.25 41.75 C-5.8275 41.5025 -6.405 41.255 -7 41 C-6.0409375 39.7315625 -6.0409375 39.7315625 -5.0625 38.4375 C-2.8033727 35.09271435 -2.32208241 32.02603008 -2 28 C-1.67 28 -1.34 28 -1 28 C-0.67 18.76 -0.34 9.52 0 0 Z " fill="#255C85" transform="translate(104,138)"/>
<path d="M0 0 C1.670625 0.061875 1.670625 0.061875 3.375 0.125 C1.89 1.61 1.89 1.61 0.375 3.125 C1.365 2.795 2.355 2.465 3.375 2.125 C3.045 3.115 2.715 4.105 2.375 5.125 C0.395 5.785 -1.585 6.445 -3.625 7.125 C-3.955 13.065 -4.285 19.005 -4.625 25.125 C-5.945 25.455 -7.265 25.785 -8.625 26.125 C-8.625 21.505 -8.625 16.885 -8.625 12.125 C-8.295 12.125 -7.965 12.125 -7.625 12.125 C-7.295 15.755 -6.965 19.385 -6.625 23.125 C-6.57601562 21.63226563 -6.52703125 20.13953125 -6.4765625 18.6015625 C-6.40154173 16.65102237 -6.3259936 14.70050247 -6.25 12.75 C-6.2190625 11.76515625 -6.188125 10.7803125 -6.15625 9.765625 C-6.11757813 8.82460937 -6.07890625 7.88359375 -6.0390625 6.9140625 C-6.0076416 6.04475098 -5.9762207 5.17543945 -5.94384766 4.27978516 C-5.35028432 0.26846053 -3.87302193 0.13355248 0 0 Z " fill="#174E7A" transform="translate(50.625,136.875)"/>
<path d="M0 0 C0.66 0.33 1.32 0.66 2 1 C2 5.62 2 10.24 2 15 C-1.54674003 16.18224668 -3.97522995 15.89329634 -7.6875 15.5625 C-8.86699219 15.46066406 -10.04648438 15.35882813 -11.26171875 15.25390625 C-12.16535156 15.17011719 -13.06898437 15.08632812 -14 15 C-14.33 16.32 -14.66 17.64 -15 19 C-15 17.35 -15 15.7 -15 14 C-9.06 13.505 -9.06 13.505 -3 13 C-2.67 9.37 -2.34 5.74 -2 2 C-1.34 2 -0.68 2 0 2 C0 1.34 0 0.68 0 0 Z " fill="#DAE9F2" transform="translate(84,140)"/>
<path d="M0 0 C0.99 0.33 1.98 0.66 3 1 C2.566875 2.03060547 2.566875 2.03060547 2.125 3.08203125 C0.4781816 7.35346648 -0.72592522 11.74215614 -2 16.13671875 C-3 19 -3 19 -5 21 C-7.625 20.625 -7.625 20.625 -10 20 C-9.67 18.35 -9.34 16.7 -9 15 C-7.68 15 -6.36 15 -5 15 C-3.10809486 10.34906653 -1.85165985 7.04356508 -2 2 C-1.34 1.34 -0.68 0.68 0 0 Z " fill="#B0CB3B" transform="translate(195,126)"/>
<path d="M0 0 C0.886875 0.185625 1.77375 0.37125 2.6875 0.5625 C5.85178811 0.98042484 7.94839642 0.80777742 11 0 C11 2.31 11 4.62 11 7 C6.80838094 7 3.11142314 6.86556277 -1 6 C-0.67 4.02 -0.34 2.04 0 0 Z " fill="#83A4B9" transform="translate(153,186)"/>
<path d="M0 0 C4.75 0.75 4.75 0.75 7 3 C7.22705078 4.87939453 7.22705078 4.87939453 7.1953125 7.1328125 C7.18564453 8.34130859 7.18564453 8.34130859 7.17578125 9.57421875 C7.15902344 10.41597656 7.14226562 11.25773438 7.125 12.125 C7.11597656 12.97449219 7.10695312 13.82398438 7.09765625 14.69921875 C7.07405647 16.79959884 7.03818483 18.89983444 7 21 C6.34 21 5.68 21 5 21 C5 15.39 5 9.78 5 4 C3.68 3.67 2.36 3.34 1 3 C-0.58272601 4.58272601 -0.34735747 6.38034003 -0.5625 8.5625 C-0.64628906 9.38878906 -0.73007813 10.21507812 -0.81640625 11.06640625 C-0.87699219 11.70449219 -0.93757812 12.34257812 -1 13 C-1.33 13 -1.66 13 -2 13 C-2.05416188 11.39620659 -2.09286638 9.79188594 -2.125 8.1875 C-2.14820313 7.29417969 -2.17140625 6.40085938 -2.1953125 5.48046875 C-2 3 -2 3 0 0 Z " fill="#D0EAF4" transform="translate(165,141)"/>
<path d="M0 0 C1.13199353 0.9080162 2.25532363 1.82683826 3.375 2.75 C4.00148438 3.26046875 4.62796875 3.7709375 5.2734375 4.296875 C7.08312318 6.08199481 8.00117455 7.67949644 9 10 C7.68 9.67 6.36 9.34 5 9 C5.66 11.64 6.32 14.28 7 17 C3.28665763 15.76221921 2.82845417 14.18431572 1.05078125 10.85546875 C-0.37030252 8.34612008 -2.13829483 6.19415252 -4 4 C-1.525 4.99 -1.525 4.99 1 6 C0.67 4.02 0.34 2.04 0 0 Z " fill="#A3CA87" transform="translate(260,116)"/>
<path d="M0 0 C2.475 0.495 2.475 0.495 5 1 C5.9584336 3.87530081 6.06656387 5.29049931 5.87890625 8.23046875 C5.83056641 9.03291016 5.78222656 9.83535156 5.73242188 10.66210938 C5.67634766 11.49548828 5.62027344 12.32886719 5.5625 13.1875 C5.51029297 14.03248047 5.45808594 14.87746094 5.40429688 15.74804688 C5.27476311 17.83236299 5.13806823 19.91623182 5 22 C4.34 21.67 3.68 21.34 3 21 C2.54562848 18.39850033 2.20289402 15.87163138 1.9375 13.25 C1.21365375 6.5879014 1.21365375 6.5879014 0 0 Z " fill="#034B81" transform="translate(40,139)"/>
<path d="M0 0 C0.5625 1.9375 0.5625 1.9375 1 4 C0.67 4.33 0.34 4.66 0 5 C-0.07148199 6.35243917 -0.08399454 7.70834367 -0.0625 9.0625 C-0.041875 10.361875 -0.02125 11.66125 0 13 C-0.99 13 -1.98 13 -3 13 C-3.66 14.32 -4.32 15.64 -5 17 C-5.08097324 14.72975032 -5.13917704 12.45867925 -5.1875 10.1875 C-5.22230469 8.92292969 -5.25710937 7.65835938 -5.29296875 6.35546875 C-5 3 -5 3 -3.61328125 1.05078125 C-2 0 -2 0 0 0 Z " fill="#0D4F81" transform="translate(70,139)"/>
<path d="M0 0 C0.33 0.66 0.66 1.32 1 2 C5.29 2 9.58 2 14 2 C14 2.99 14 3.98 14 5 C8.06 5 2.12 5 -4 5 C-4 4.01 -4 3.02 -4 2 C-2.68 1.34 -1.36 0.68 0 0 Z " fill="#66A138" transform="translate(233,158)"/>
<path d="M0 0 C0.99 0 1.98 0 3 0 C2.343621 4.48525648 1.29925791 8.66914029 0 13 C-1.65 12.67 -3.3 12.34 -5 12 C-4.34 9.03 -3.68 6.06 -3 3 C-2.01 3 -1.02 3 0 3 C0 2.01 0 1.02 0 0 Z " fill="#AFCD24" transform="translate(191,129)"/>
<path d="M0 0 C0.99 0 1.98 0 3 0 C4.25433458 3.76300374 4.10695422 7.27210909 4.0625 11.1875 C4.05798828 11.93708984 4.05347656 12.68667969 4.04882812 13.45898438 C4.03706354 15.30602383 4.01912865 17.15302213 4 19 C3.01 19 2.02 19 1 19 C0.67 12.73 0.34 6.46 0 0 Z " fill="#0D4B82" transform="translate(28,141)"/>
<path d="M0 0 C1.65 0.33 3.3 0.66 5 1 C3.68 1.33 2.36 1.66 1 2 C1 6.95 1 11.9 1 17 C0.01 17.33 -0.98 17.66 -2 18 C-2.05397335 15.5622037 -2.09365616 13.12560315 -2.125 10.6875 C-2.14175781 9.99720703 -2.15851563 9.30691406 -2.17578125 8.59570312 C-2.21217794 4.82864604 -2.14378864 3.21568296 0 0 Z " fill="#0B4F86" transform="translate(113,139)"/>
<path d="M0 0 C3.3 0 6.6 0 10 0 C10 0.33 10 0.66 10 1 C7.36 1.33 4.72 1.66 2 2 C3.05875074 5.40312738 4.00902154 8.01353231 6 11 C3.6875 11.25 3.6875 11.25 1 11 C-0.875 9.3125 -0.875 9.3125 -2 7 C-1.74303831 4.30190224 -1.20824654 2.41649307 0 0 Z " fill="#1F5D8D" transform="translate(67,152)"/>
<path d="M0 0 C0.66 0 1.32 0 2 0 C2.08107646 2.75059381 2.14052813 5.49879021 2.1875 8.25 C2.22520508 9.41595703 2.22520508 9.41595703 2.26367188 10.60546875 C2.33834499 16.42997175 2.33834499 16.42997175 0.48828125 19.546875 C-0.00285156 20.02640625 -0.49398437 20.5059375 -1 21 C-3.4375 20.625 -3.4375 20.625 -6 20 C-6.33 19.34 -6.66 18.68 -7 18 C-4.69 18 -2.38 18 0 18 C0 12.06 0 6.12 0 0 Z " fill="#BDDCEC" transform="translate(99,138)"/>
<path d="M0 0 C2.31 0 4.62 0 7 0 C6.67 1.65 6.34 3.3 6 5 C5.34 5 4.68 5 4 5 C4 5.66 4 6.32 4 7 C4.99 7 5.98 7 7 7 C7 7.66 7 8.32 7 9 C4.69 9 2.38 9 0 9 C0 6.03 0 3.06 0 0 Z " fill="#DAEBF2" transform="translate(134,185)"/>
<path d="M0 0 C0.02705729 1.77074917 0.04642195 3.54161711 0.0625 5.3125 C0.07410156 6.29863281 0.08570313 7.28476563 0.09765625 8.30078125 C0 11 0 11 -1 14 C-1.66 14 -2.32 14 -3 14 C-4.00496852 10.98509443 -4.10335303 8.95818308 -4.0625 5.8125 C-4.05347656 4.91144531 -4.04445312 4.01039063 -4.03515625 3.08203125 C-4.02355469 2.39496094 -4.01195312 1.70789063 -4 1 C-1 0 -1 0 0 0 Z " fill="#0A4C82" transform="translate(138,143)"/>
<path d="M0 0 C0.66 0.33 1.32 0.66 2 1 C2 5.62 2 10.24 2 15 C-0.97 15 -3.94 15 -7 15 C-7 14.34 -7 13.68 -7 13 C-5.02 13 -3.04 13 -1 13 C-1.020625 11.783125 -1.04125 10.56625 -1.0625 9.3125 C-1.06824116 6.08022678 -0.78766315 3.15065259 0 0 Z " fill="#D3E7F1" transform="translate(122,123)"/>
<path d="M0 0 C0.33 0.99 0.66 1.98 1 3 C-3.62 3 -8.24 3 -13 3 C-13.33 2.01 -13.66 1.02 -14 0 C-9.20699867 -1.39151652 -4.84864218 -0.68662689 0 0 Z " fill="#A7C758" transform="translate(238,107)"/>
<path d="M0 0 C0.66 0.66 1.32 1.32 2 2 C2.33 1.34 2.66 0.68 3 0 C4.32 0 5.64 0 7 0 C8.43088528 2.86177057 7.59991697 4.93375773 7 8 C5.02 8 3.04 8 1 8 C0.67 5.36 0.34 2.72 0 0 Z " fill="#89A2B7" transform="translate(144,186)"/>
<path d="M0 0 C0.99 0.66 1.98 1.32 3 2 C2.34 2 1.68 2 1 2 C1 2.66 1 3.32 1 4 C-2.3 3.67 -5.6 3.34 -9 3 C-9 2.01 -9 1.02 -9 0 C-5.88109857 -1.55945072 -3.34501482 -0.64552918 0 0 Z " fill="#7BC6BD" transform="translate(224,189)"/>
<path d="M0 0 C0.33 0.99 0.66 1.98 1 3 C1.66 3 2.32 3 3 3 C3.33 2.01 3.66 1.02 4 0 C4.66 0.99 5.32 1.98 6 3 C8.05003955 4.19232613 8.05003955 4.19232613 10 5 C9.01 5.66 8.02 6.32 7 7 C8.32 7.66 9.64 8.32 11 9 C6.90114782 9.47661072 5.44069635 9.3448928 2.125 6.75 C0 4 0 4 0 0 Z " fill="#175685" transform="translate(134,154)"/>
<path d="M0 0 C1.66611905 -0.042721 3.33382885 -0.04063832 5 0 C6 1 6 1 6.125 3.5 C6 6 6 6 5 7 C3.33382885 7.04063832 1.66611905 7.042721 0 7 C0 4.69 0 2.38 0 0 Z " fill="#8DA9B6" transform="translate(79,186)"/>
<path d="M0 0 C2.97 0 5.94 0 9 0 C9.0810206 2.10353495 9.13919907 4.20795952 9.1875 6.3125 C9.22230469 7.48425781 9.25710937 8.65601563 9.29296875 9.86328125 C9 13 9 13 6 16 C6.33 11.38 6.66 6.76 7 2 C5.35 2.33 3.7 2.66 2 3 C1.34 2.67 0.68 2.34 0 2 C0 1.34 0 0.68 0 0 Z " fill="#C5E3F3" transform="translate(92,162)"/>
<path d="M0 0 C0.66 0 1.32 0 2 0 C2.33 0.66 2.66 1.32 3 2 C3.33 1.34 3.66 0.68 4 0 C4.66 0 5.32 0 6 0 C6 2.31 6 4.62 6 7 C5.01 7.33 4.02 7.66 3 8 C2.01 7.01 1.02 6.02 0 5 C0 5.66 0 6.32 0 7 C-0.66 6.67 -1.32 6.34 -2 6 C-1.34 4.02 -0.68 2.04 0 0 Z " fill="#6E8FAB" transform="translate(100,186)"/>
<path d="M0 0 C5 1 5 1 6 2 C6.04080783 3.99958364 6.04254356 6.00045254 6 8 C5.01 7.67 4.02 7.34 3 7 C3 7.66 3 8.32 3 9 C2.34 9 1.68 9 1 9 C0.67 9.66 0.34 10.32 0 11 C0 7.37 0 3.74 0 0 Z " fill="#F3FAFA" transform="translate(105,185)"/>
<path d="M0 0 C0.33 0.66 0.66 1.32 1 2 C0.67 2.99 0.34 3.98 0 5 C2.64 5 5.28 5 8 5 C8 5.99 8 6.98 8 8 C3.71 8 -0.58 8 -5 8 C-1.125 1.125 -1.125 1.125 0 0 Z " fill="#ECFBE1" transform="translate(240,151)"/>
<path d="M0 0 C1.134375 0.020625 2.26875 0.04125 3.4375 0.0625 C3.7675 0.7225 4.0975 1.3825 4.4375 2.0625 C0.69157744 4.39104646 -2.05427458 6.0625 -6.5625 6.0625 C-4.25951087 0.07472826 -4.25951087 0.07472826 0 0 Z " fill="#1B5888" transform="translate(140.5625,137.9375)"/>
<path d="M0 0 C1.98 0 3.96 0 6 0 C5.34 2.97 4.68 5.94 4 9 C3.01 9 2.02 9 1 9 C0.67 6.03 0.34 3.06 0 0 Z " fill="#ABC3CF" transform="translate(110,185)"/>
<path d="M0 0 C3.96 0 7.92 0 12 0 C12 1.32 12 2.64 12 4 C12.66 4.33 13.32 4.66 14 5 C12.625 7.5 12.625 7.5 11 10 C10.34 10 9.68 10 9 10 C9 9.01 9 8.02 9 7 C8.01 7.495 8.01 7.495 7 8 C8.875 3.125 8.875 3.125 10 2 C6.7 1.67 3.4 1.34 0 1 C0 0.67 0 0.34 0 0 Z " fill="#84B660" transform="translate(230,141)"/>
<path d="M0 0 C5.875 0.875 5.875 0.875 7 2 C7.12487758 3.80927281 7.17570846 5.62396107 7.1875 7.4375 C7.20167969 8.42621094 7.21585937 9.41492188 7.23046875 10.43359375 C7 13 7 13 5 15 C5 11.37 5 7.74 5 4 C3.68 3.34 2.36 2.68 1 2 C0.67 1.34 0.34 0.68 0 0 Z " fill="#155488" transform="translate(120,120)"/>
<path d="M0 0 C1.670625 0.061875 1.670625 0.061875 3.375 0.125 C1.89 1.61 1.89 1.61 0.375 3.125 C1.365 2.795 2.355 2.465 3.375 2.125 C3.045 3.115 2.715 4.105 2.375 5.125 C-1.1875 6.3125 -1.1875 6.3125 -4.625 7.125 C-5.25 4.75 -5.25 4.75 -5.625 2.125 C-3.625 0.125 -3.625 0.125 0 0 Z " fill="#2A6595" transform="translate(50.625,136.875)"/>
<path d="M0 0 C4.62 0 9.24 0 14 0 C14.33 0.66 14.66 1.32 15 2 C14.34 2 13.68 2 13 2 C13 3.32 13 4.64 13 6 C12.34 6 11.68 6 11 6 C11 4.68 11 3.36 11 2 C7.37 2 3.74 2 0 2 C0 1.34 0 0.68 0 0 Z " fill="#66A437" transform="translate(231,139)"/>
<path d="M0 0 C3.37503669 1.1858237 5.64722731 2.27573689 8 5 C6.68 6.32 5.36 7.64 4 9 C2.68 8.34 1.36 7.68 0 7 C0.66 6.67 1.32 6.34 2 6 C1.34 4.02 0.68 2.04 0 0 Z " fill="#7FC2B9" transform="translate(205,181)"/>
<path d="M0 0 C1.30062431 3.81516464 0.89369853 7.27561763 0.5625 11.25 C0.46066406 12.51328125 0.35882813 13.7765625 0.25390625 15.078125 C0.17011719 16.04234375 0.08632812 17.0065625 0 18 C-0.66 18 -1.32 18 -2 18 C-2 12.72 -2 7.44 -2 2 C-1.34 2 -0.68 2 0 2 C0 1.34 0 0.68 0 0 Z " fill="#0E548D" transform="translate(175,142)"/>
<path d="M0 0 C0.66 0.33 1.32 0.66 2 1 C1.01 2.485 1.01 2.485 0 4 C-0.16699232 7.12521833 -0.16699232 7.12521833 0 10 C-0.99 10.495 -0.99 10.495 -2 11 C-2 9.68 -2 8.36 -2 7 C-3.65 7.33 -5.3 7.66 -7 8 C-7 8.66 -7 9.32 -7 10 C-7.66 9.67 -8.32 9.34 -9 9 C-8.34 8.01 -7.68 7.02 -7 6 C-6.34 6 -5.68 6 -5 6 C-5 5.34 -5 4.68 -5 4 C-3.37373596 2.61767557 -1.7074998 1.28062485 0 0 Z " fill="#B4CB57" transform="translate(204,112)"/>
<path d="M0 0 C5.66153846 2.46153846 5.66153846 2.46153846 7.375 5.1875 C7.58125 5.785625 7.7875 6.38375 8 7 C6.081875 6.8453125 6.081875 6.8453125 4.125 6.6875 C3.04605469 6.60048828 3.04605469 6.60048828 1.9453125 6.51171875 C0 6 0 6 -2 3 C-1.34 2.01 -0.68 1.02 0 0 Z " fill="#1A5382" transform="translate(91,156)"/>
<path d="M0 0 C0.33 0 0.66 0 1 0 C1 5.94 1 11.88 1 18 C-0.65 18 -2.3 18 -4 18 C-4 17.01 -4 16.02 -4 15 C-3.34 15.33 -2.68 15.66 -2 16 C-1.34 10.72 -0.68 5.44 0 0 Z " fill="#034E89" transform="translate(102,144)"/>
<path d="M0 0 C2.475 0.495 2.475 0.495 5 1 C5 2.65 5 4.3 5 6 C3.35 6.33 1.7 6.66 0 7 C0 4.69 0 2.38 0 0 Z " fill="#92A9B9" transform="translate(171,186)"/>
<path d="M0 0 C0.33 0 0.66 0 1 0 C1.21133202 7.04440079 1.07965362 13.24112575 -1 20 C-1.33 20 -1.66 20 -2 20 C-3.81776055 13.09250992 -1.70580672 6.73018288 0 0 Z " fill="#AACFA6" transform="translate(275,144)"/>
<path d="M0 0 C1.65 0.33 3.3 0.66 5 1 C4.67 2.65 4.34 4.3 4 6 C2.35 5.67 0.7 5.34 -1 5 C-0.67 3.35 -0.34 1.7 0 0 Z " fill="#63AE3A" transform="translate(186,141)"/>
<path d="M0 0 C2.125 0.375 2.125 0.375 4 1 C4 2.65 4 4.3 4 6 C2.35 6 0.7 6 -1 6 C-1.625 4.125 -1.625 4.125 -2 2 C-1.34 1.34 -0.68 0.68 0 0 Z " fill="#185082" transform="translate(187,153)"/>
<path d="M0 0 C0.66 1.32 1.32 2.64 2 4 C3.32 4 4.64 4 6 4 C6.66 3.34 7.32 2.68 8 2 C8 2.99 8 3.98 8 5 C9.32 4.67 10.64 4.34 12 4 C11.01 5.32 10.02 6.64 9 8 C8.34 7.67 7.68 7.34 7 7 C4.99890722 7.32670903 2.99883869 7.65977214 1 8 C0 7 0 7 -0.0625 3.4375 C-0.041875 2.303125 -0.02125 1.16875 0 0 Z " fill="#E0F3F9" transform="translate(151,188)"/>
<path d="M0 0 C0.66 0 1.32 0 2 0 C2 0.99 2 1.98 2 3 C2.66 3 3.32 3 4 3 C4 2.01 4 1.02 4 0 C4.66 0 5.32 0 6 0 C6 2.31 6 4.62 6 7 C5.34 7 4.68 7 4 7 C4 6.01 4 5.02 4 4 C3.34 4 2.68 4 2 4 C2 4.99 2 5.98 2 7 C1.34 7 0.68 7 0 7 C0 4.69 0 2.38 0 0 Z " fill="#7C8FA7" transform="translate(129,186)"/>
<path d="M0 0 C1.32 0 2.64 0 4 0 C4.33 1.98 4.66 3.96 5 6 C3.35 6.33 1.7 6.66 0 7 C0 4.69 0 2.38 0 0 Z " fill="#7C9BAB" transform="translate(93,186)"/>
<path d="M0 0 C1.32 0.33 2.64 0.66 4 1 C3.67 2.32 3.34 3.64 3 5 C1.125 5.625 1.125 5.625 -1 6 C-1.66 5.34 -2.32 4.68 -3 4 C-2.67 3.01 -2.34 2.02 -2 1 C-1.34 1.33 -0.68 1.66 0 2 C0 1.34 0 0.68 0 0 Z " fill="#B9CFDC" transform="translate(257,159)"/>
<path d="M0 0 C3.0625 0.125 3.0625 0.125 5.0625 1.125 C4.7325 2.115 4.4025 3.105 4.0625 4.125 C4.0625 3.465 4.0625 2.805 4.0625 2.125 C3.4025 2.125 2.7425 2.125 2.0625 2.125 C1.7325 4.105 1.4025 6.085 1.0625 8.125 C0.4025 7.465 -0.2575 6.805 -0.9375 6.125 C-0.9375 4.805 -0.9375 3.485 -0.9375 2.125 C-1.9275 1.795 -2.9175 1.465 -3.9375 1.125 C-2.9375 0.125 -2.9375 0.125 0 0 Z " fill="#E5F2F8" transform="translate(97.9375,183.875)"/>
<path d="M0 0 C2.475 0.495 2.475 0.495 5 1 C6.2077558 4.62326739 5.54311128 5.64146369 4 9 C0 4.5 0 4.5 0 0 Z " fill="#0D4F8B" transform="translate(40,139)"/>
<path d="M0 0 C1.32 0.66 2.64 1.32 4 2 C3.01 2.33 2.02 2.66 1 3 C0.67 4.65 0.34 6.3 0 8 C-0.99 8 -1.98 8 -3 8 C-3.1875 5.125 -3.1875 5.125 -3 2 C-2.01 1.34 -1.02 0.68 0 0 Z " fill="#F0F9FB" transform="translate(170,184)"/>
<path d="M0 0 C0.78375 0.04125 1.5675 0.0825 2.375 0.125 C2.705 1.115 3.035 2.105 3.375 3.125 C3.045 3.785 2.715 4.445 2.375 5.125 C0.065 5.125 -2.245 5.125 -4.625 5.125 C-4.625 1.22254579 -3.95783286 0.18846823 0 0 Z " fill="#2B6493" transform="translate(118.625,136.875)"/>
<path d="M0 0 C0.99 0 1.98 0 3 0 C3.33 2.64 3.66 5.28 4 8 C4.66 8 5.32 8 6 8 C5.67 8.99 5.34 9.98 5 11 C2.27042661 8.64264116 1.11106604 6.41866474 0 3 C0 2.01 0 1.02 0 0 Z " fill="#E4FCFD" transform="translate(193,160)"/>
<path d="M0 0 C0.33 0 0.66 0 1 0 C1 5.61 1 11.22 1 17 C-0.32 17.33 -1.64 17.66 -3 18 C-3 17.01 -3 16.02 -3 15 C-2.01 15 -1.02 15 0 15 C0 10.05 0 5.1 0 0 Z " fill="#255479" transform="translate(32,145)"/>
<path d="M0 0 C1.65 0 3.3 0 5 0 C3.68 3.3 2.36 6.6 1 10 C0.67 10 0.34 10 0 10 C0 6.7 0 3.4 0 0 Z " fill="#DFECCA" transform="translate(216,153)"/>
<path d="M0 0 C0.33 0 0.66 0 1 0 C1 5.94 1 11.88 1 18 C-0.32 18.33 -1.64 18.66 -3 19 C-3 18.34 -3 17.68 -3 17 C-2.34 16.67 -1.68 16.34 -1 16 C-0.68758545 13.28553021 -0.48663408 10.66090639 -0.375 7.9375 C-0.33632812 7.17888672 -0.29765625 6.42027344 -0.2578125 5.63867188 C-0.16326438 3.75952805 -0.08053244 1.87979664 0 0 Z " fill="#295778" transform="translate(162,144)"/>
<path d="M0 0 C5.75 -0.125 5.75 -0.125 8 1 C7.67 2.65 7.34 4.3 7 6 C3.73539027 4.19587357 2.11070205 3.16605307 0 0 Z " fill="#1A598D" transform="translate(164,137)"/>
<path d="M0 0 C0.33 0.66 0.66 1.32 1 2 C3.02463255 2.65213292 3.02463255 2.65213292 5 3 C4.67 4.98 4.34 6.96 4 9 C3.01 8.34 2.02 7.68 1 7 C0.3125 3.375 0.3125 3.375 0 0 Z " fill="#94C67C" transform="translate(264,123)"/>
<path d="M0 0 C0.66 0.33 1.32 0.66 2 1 C0.75453595 4.73639216 -0.63404953 5.18756513 -4 7 C-4.33 5.68 -4.66 4.36 -5 3 C-2.625 1.4375 -2.625 1.4375 0 0 Z " fill="#84C8AA" transform="translate(263,176)"/>
<path d="M0 0 C0.33 0 0.66 0 1 0 C1 5.28 1 10.56 1 16 C-0.32 16.33 -1.64 16.66 -3 17 C-2.505 15.515 -2.505 15.515 -2 14 C-1.34 14 -0.68 14 0 14 C0 9.38 0 4.76 0 0 Z " fill="#1C517C" transform="translate(175,146)"/>
<path d="M0 0 C1.32 0 2.64 0 4 0 C4.33 1.98 4.66 3.96 5 6 C2.525 5.01 2.525 5.01 0 4 C0 2.68 0 1.36 0 0 Z " fill="#98CA6F" transform="translate(256,116)"/>
<path d="M0 0 C1.134375 0.020625 2.26875 0.04125 3.4375 0.0625 C3.4375 0.3925 3.4375 0.7225 3.4375 1.0625 C1.7875 1.0625 0.1375 1.0625 -1.5625 1.0625 C-1.2325 1.7225 -0.9025 2.3825 -0.5625 3.0625 C1.46213255 3.71463292 1.46213255 3.71463292 3.4375 4.0625 C3.1075 4.7225 2.7775 5.3825 2.4375 6.0625 C-0.5 5.25 -0.5 5.25 -3.5625 4.0625 C-3.8925 3.0725 -4.2225 2.0825 -4.5625 1.0625 C-3.5625 0.0625 -3.5625 0.0625 0 0 Z " fill="#3E719A" transform="translate(73.5625,136.9375)"/>
<path d="M0 0 C-0.99 0.66 -1.98 1.32 -3 2 C-1.68 2.66 -0.36 3.32 1 4 C-4.53846154 4.36923077 -4.53846154 4.36923077 -6.875 2.5 C-7.24625 2.005 -7.6175 1.51 -8 1 C-4.93251126 -0.86240388 -3.40254489 -1.2151946 0 0 Z " fill="#366C92" transform="translate(144,159)"/>
<path d="M0 0 C2.875 -0.125 2.875 -0.125 6 0 C6.66 0.66 7.32 1.32 8 2 C7 3 7 3 3.4375 3.0625 C2.303125 3.041875 1.16875 3.02125 0 3 C0 2.01 0 1.02 0 0 Z " fill="#094A7F" transform="translate(117,159)"/>
<path d="M0 0 C0.66 0 1.32 0 2 0 C2.33 1.32 2.66 2.64 3 4 C1.35 4.66 -0.3 5.32 -2 6 C-2 2 -2 2 0 0 Z " fill="#185485" transform="translate(68,139)"/>
<path d="M0 0 C0.33 0.66 0.66 1.32 1 2 C0.07421875 4.12890625 0.07421875 4.12890625 -1.3125 6.5625 C-1.98732422 7.77099609 -1.98732422 7.77099609 -2.67578125 9.00390625 C-4 11 -4 11 -6 12 C-4.68139111 7.38486888 -2.78644563 3.90102388 0 0 Z " fill="#F6FCCE" transform="translate(200,125)"/>
<path d="M0 0 C1.32 0.33 2.64 0.66 4 1 C3.34 1 2.68 1 2 1 C2 1.66 2 2.32 2 3 C2.66 3.33 3.32 3.66 4 4 C3.34 4 2.68 4 2 4 C2 4.66 2 5.32 2 6 C2.66 6.33 3.32 6.66 4 7 C2.68 7 1.36 7 0 7 C0 4.69 0 2.38 0 0 Z " fill="#718E9D" transform="translate(136,186)"/>
<path d="M0 0 C0.33 0 0.66 0 1 0 C1 2.31 1 4.62 1 7 C-0.65 6.67 -2.3 6.34 -4 6 C-2.69593116 3.98079663 -1.36176581 1.98075027 0 0 Z " fill="#ECF9E6" transform="translate(247,141)"/>
<path d="M0 0 C2.31 0 4.62 0 7 0 C7.33 0.66 7.66 1.32 8 2 C7.34 2 6.68 2 6 2 C5.67 2.99 5.34 3.98 5 5 C5 4.34 5 3.68 5 3 C4.01 2.67 3.02 2.34 2 2 C1.34 1.34 0.68 0.68 0 0 Z " fill="#2F6997" transform="translate(34,137)"/>
<path d="M0 0 C0.66 0 1.32 0 2 0 C2 2.31 2 4.62 2 7 C1.01 7 0.02 7 -1 7 C-0.67 4.69 -0.34 2.38 0 0 Z " fill="#9EB1BB" transform="translate(104,186)"/>
<path d="M0 0 C0.66 0 1.32 0 2 0 C1.67 1.98 1.34 3.96 1 6 C0.01 6 -0.98 6 -2 6 C-1.125 1.125 -1.125 1.125 0 0 Z " fill="#6EC6C7" transform="translate(195,171)"/>
<path d="M0 0 C1.64826111 2.96687001 2.44271087 5.65626525 3 9 C2.01 9.495 2.01 9.495 1 10 C1 9.34 1 8.68 1 8 C0.34 7.67 -0.32 7.34 -1 7 C-0.67 4.69 -0.34 2.38 0 0 Z " fill="#DFF7FA" transform="translate(185,158)"/>
<path d="M0 0 C0.99 0 1.98 0 3 0 C3 0.99 3 1.98 3 3 C2.34 3 1.68 3 1 3 C1 5.64 1 8.28 1 11 C0.67 11 0.34 11 0 11 C0 7.37 0 3.74 0 0 Z " fill="#0B4B87" transform="translate(88,139)"/>
<path d="M0 0 C-0.99 0.495 -0.99 0.495 -2 1 C-2 2.32 -2 3.64 -2 5 C-2.66 5 -3.32 5 -4 5 C-4 3.68 -4 2.36 -4 1 C-4.66 0.67 -5.32 0.34 -6 0 C-3.50907189 -1.24546405 -2.58919267 -0.7767578 0 0 Z " fill="#5DA62C" transform="translate(246,140)"/>
<path d="M0 0 C1.98 0 3.96 0 6 0 C6.33 0.66 6.66 1.32 7 2 C5.02 2.33 3.04 2.66 1 3 C0.67 2.01 0.34 1.02 0 0 Z " fill="#0D4B81" transform="translate(72,138)"/>
</svg>
